<svg xmlns="http://www.w3.org/2000/svg" viewBox="0 0 24 24" width="24" height="24">
  <path d="M12 2a5 5 0 00-5 5 5.003 5.003 0 003.1 4.6 4.971 4.971 0 00-.1 1.4 5 5 0 0010 0 4.971 4.971 0 00-.1-1.4A5.003 5.003 0 0017 7a5 5 0 00-5-5zm0 2c1.66 0 3 1.34 3 3a3 3 0 01-1.77 2.73 4.973 4.973 0 00-.23 1.27 3 3 0 01-6 0 4.973 4.973 0 00-.23-1.27A3 3 0 019 7c0-1.66 1.34-3 3-3zm0 8c.55 0 1 .45 1 1s-.45 1-1 1-1-.45-1-1 .45-1 1-1zm2.8 4.2c.56-.35.76-1.11.41-1.67s-1.11-.76-1.67-.41A2.996 2.996 0 0012 15a2.996 2.996 0 00-2.54 1.12c-.56-.35-1.32-.15-1.67.41s-.15 1.32.41 1.67A2.996 2.996 0 0012 19c1.1 0 2.1-.55 2.8-1.3z"/>
</svg>
<svg xmlns="http://www.w3.org/2000/svg" viewBox="0 0 24 24" width="24" height="24">
  <path d="M12 2a5 5 0 00-5 5 5.003 5.003 0 003.1 4.6 4.971 4.971 0 00-.1 1.4 5 5 0 0010 0 4.971 4.971 0 00-.1-1.4A5.003 5.003 0 0017 7a5 5 0 00-5-5zm0 2c1.66 0 3 1.34 3 3a3 3 0 01-1.77 2.73 4.973 4.973 0 00-.23 1.27 3 3 0 01-6 0 4.973 4.973 0 00-.23-1.27A3 3 0 019 7c0-1.66 1.34-3 3-3zm0 8c.55 0 1 .45 1 1s-.45 1-1 1-1-.45-1-1 .45-1 1-1zm2.8 4.2c.56-.35.76-1.11.41-1.67s-1.11-.76-1.67-.41A2.996 2.996 0 0012 15a2.996 2.996 0 00-2.54 1.12c-.56-.35-1.32-.15-1.67.41s-.15 1.32.41 1.67A2.996 2.996 0 0012 19c1.1 0 2.1-.55 2.8-1.3z"/>
</svg>
